<?xml version="1.0" encoding="UTF-8" standalone="no"?>
<!-- Created with Inkscape (http://www.inkscape.org/) -->

<svg
   width="210mm"
   height="297mm"
   viewBox="0 0 210 297"
   version="1.1"
   id="svg1"
   xml:space="preserve"
   inkscape:version="1.4.2 (f4327f4, 2025-05-13)"
   sodipodi:docname="icono_vectorizado.svg"
   xmlns:inkscape="http://www.inkscape.org/namespaces/inkscape"
   xmlns:sodipodi="http://sodipodi.sourceforge.net/DTD/sodipodi-0.dtd"
   xmlns="http://www.w3.org/2000/svg"
   xmlns:svg="http://www.w3.org/2000/svg"><sodipodi:namedview
     id="namedview1"
     pagecolor="#505050"
     bordercolor="#eeeeee"
     borderopacity="1"
     inkscape:showpageshadow="0"
     inkscape:pageopacity="0"
     inkscape:pagecheckerboard="0"
     inkscape:deskcolor="#505050"
     inkscape:document-units="mm"
     inkscape:zoom="0.69753788"
     inkscape:cx="397.11105"
     inkscape:cy="559.82623"
     inkscape:window-width="1920"
     inkscape:window-height="1001"
     inkscape:window-x="-9"
     inkscape:window-y="-9"
     inkscape:window-maximized="1"
     inkscape:current-layer="layer1" /><defs
     id="defs1" /><g
     inkscape:label="Capa 1"
     inkscape:groupmode="layer"
     id="layer1"><path
       style="fill:#914b1e;stroke:none;stroke-width:2.52796"
       d="m 43.975597,62.670655 c -3.01997,14.63139 -4.587529,27.99504 -1.328415,42.806675 1.456961,6.62147 5.396322,12.83453 6.567245,19.39681 0.773908,4.33724 -6.756614,10.50555 -4.481203,14.33755 1.159522,1.95279 5.921379,2.38778 7.937472,3.05321 6.647304,2.19396 12.841272,4.63872 18.727913,8.49125 19.32143,12.64489 30.035501,36.25892 30.098451,59.06254 h 12.70823 c 0.0152,-22.95752 11.17985,-46.76381 30.7673,-59.23647 8.62147,-5.48985 18.03215,-7.45046 27.42302,-10.99326 -1.65138,-4.02518 -5.34316,-9.07674 -5.73582,-13.3771 -0.31407,-3.43961 2.54286,-7.53663 3.69314,-10.70172 2.16527,-5.9579 3.74369,-12.43525 4.52665,-18.727915 1.48184,-11.90999 -0.50362,-22.5278 -3.15281,-34.11157 -16.04399,2.76255 -37.73883,19.269 -44.14439,34.11157 -9.09745,-2.56256 -17.39402,-3.30169 -26.75417,-2.65893 -3.381941,0.23232 -9.525501,3.11254 -12.568371,1.38573 -4.0196,-2.28113 -6.96935,-8.72649 -10.23255,-12.07757 -8.38305,-8.60882 -21.921509,-18.67215 -34.051692,-20.7608 m 7.357382,14.71479 c 10.051902,5.29558 20.80824,14.06372 24.07876,25.416475 L 56.683822,115.51014 C 51.332903,106.0985 46.345603,87.763505 51.332979,77.385445 m 113.705251,0 c 1.61976,12.81648 0.49379,26.668295 -6.01969,38.124695 -3.83096,-1.7548 -16.33559,-9.42148 -17.58531,-13.50043 -0.89552,-2.923025 2.38448,-6.423995 3.92695,-8.571765 4.99818,-6.95955 11.73025,-12.72599 19.67805,-16.0525 M 39.96247,163.66774 c 4.331472,23.24834 13.695569,42.85356 35.449269,54.63961 42.394491,22.96912 98.207521,-5.91807 100.328161,-55.30849 -19.92074,1.62709 -38.03779,15.88973 -48.59566,32.105 -4.53945,6.9719 -9.39515,27.05265 -19.62749,26.65458 -9.139691,-0.35554 -12.624351,-15.39936 -16.206811,-21.97258 -7.82222,-14.35248 -19.54786,-25.83522 -34.626117,-32.29235 -4.796691,-2.05414 -11.490611,-5.14385 -16.721352,-3.82577 z"
       id="path1" /></g></svg>
